# xmcd
#
# Track frame offsets: 
#        150
#        9450
#        21049
#        30713
#        44076
#        60733
#        71584
#        82877
#        96951
#        108393
#        131135
#        140723
#        149547
#        159681
#        172354
#
# Disc length: 2516 seconds
#
# Revision: 0
# Processed by: cddbd v1.5.2PL0 Copyright (c) Steve Scherf et al.
# Submitted via: ExactAudioCopy v0.99pb5
#
DISCID=df09d20f
DTITLE=Johnny Cash - The Christmas Collection
DYEAR=2009
DGENRE=Country
TTITLE0=Silent Night, Holy Night
TTITLE1=Little Drummer Boy
TTITLE2=Joy To The World
TTITLE3=O Come All Ye Faithful
TTITLE4=It Came Upon A Midnight Clear
TTITLE5=Blue Christmas
TTITLE6=I Heard The Bells On Christmas Day
TTITLE7=Away In A Manger
TTITLE8=Hark! The Herald Angels Sing
TTITLE9=The Christmas Spirit
TTITLE10=Christmas With You (with June Carter)
TTITLE11=Merry Christmas Mary
TTITLE12=That Christmas Feeling (with Tommy Cash)
TTITLE13=(There Will Be) Peace In The Valley (For Me)
TTITLE14=Christmas As I Knew It
EXTD=
EXTT0=
EXTT1=
EXTT2=
EXTT3=
EXTT4=
EXTT5=
EXTT6=
EXTT7=
EXTT8=
EXTT9=
EXTT10=
EXTT11=
EXTT12=
EXTT13=
EXTT14=
PLAYORDER=
